<mxfile host="app.diagrams.net" agent="Mozilla/5.0 (Windows NT 10.0; Win64; x64) AppleWebKit/537.36 (KHTML, like Gecko) Chrome/140.0.0.0 Safari/537.36" version="28.2.5">
  <diagram name="Página-1" id="GxgK_tBex1-7VkjY1Q4q">
    <mxGraphModel dx="866" dy="479" grid="1" gridSize="10" guides="1" tooltips="1" connect="1" arrows="1" fold="1" page="1" pageScale="1" pageWidth="827" pageHeight="1169" math="0" shadow="0">
      <root>
        <mxCell id="0" />
        <mxCell id="1" parent="0" />
        <mxCell id="D02ND7S5W8Cb5W8MSe0f-3" value="" style="edgeStyle=orthogonalEdgeStyle;rounded=0;orthogonalLoop=1;jettySize=auto;html=1;" edge="1" parent="1" source="D02ND7S5W8Cb5W8MSe0f-1" target="D02ND7S5W8Cb5W8MSe0f-2">
          <mxGeometry relative="1" as="geometry" />
        </mxCell>
        <mxCell id="D02ND7S5W8Cb5W8MSe0f-1" value="I" style="ellipse;whiteSpace=wrap;html=1;" vertex="1" parent="1">
          <mxGeometry x="60" y="40" width="120" height="80" as="geometry" />
        </mxCell>
        <mxCell id="D02ND7S5W8Cb5W8MSe0f-5" value="" style="edgeStyle=orthogonalEdgeStyle;rounded=0;orthogonalLoop=1;jettySize=auto;html=1;" edge="1" parent="1" source="D02ND7S5W8Cb5W8MSe0f-2" target="D02ND7S5W8Cb5W8MSe0f-4">
          <mxGeometry relative="1" as="geometry" />
        </mxCell>
        <mxCell id="D02ND7S5W8Cb5W8MSe0f-2" value="ler n1,n2,n3,n4" style="shape=parallelogram;perimeter=parallelogramPerimeter;whiteSpace=wrap;html=1;fixedSize=1;" vertex="1" parent="1">
          <mxGeometry x="260" y="50" width="120" height="60" as="geometry" />
        </mxCell>
        <mxCell id="D02ND7S5W8Cb5W8MSe0f-7" value="" style="edgeStyle=orthogonalEdgeStyle;rounded=0;orthogonalLoop=1;jettySize=auto;html=1;" edge="1" parent="1" source="D02ND7S5W8Cb5W8MSe0f-4" target="D02ND7S5W8Cb5W8MSe0f-6">
          <mxGeometry relative="1" as="geometry" />
        </mxCell>
        <mxCell id="D02ND7S5W8Cb5W8MSe0f-4" value="média = n1+n2+n3+n4/4" style="whiteSpace=wrap;html=1;" vertex="1" parent="1">
          <mxGeometry x="460" y="50" width="120" height="60" as="geometry" />
        </mxCell>
        <mxCell id="D02ND7S5W8Cb5W8MSe0f-9" value="" style="edgeStyle=orthogonalEdgeStyle;rounded=0;orthogonalLoop=1;jettySize=auto;html=1;" edge="1" parent="1" source="D02ND7S5W8Cb5W8MSe0f-6" target="D02ND7S5W8Cb5W8MSe0f-8">
          <mxGeometry relative="1" as="geometry" />
        </mxCell>
        <mxCell id="D02ND7S5W8Cb5W8MSe0f-6" value="escrever média" style="shape=parallelogram;perimeter=parallelogramPerimeter;whiteSpace=wrap;html=1;fixedSize=1;" vertex="1" parent="1">
          <mxGeometry x="460" y="190" width="120" height="60" as="geometry" />
        </mxCell>
        <mxCell id="D02ND7S5W8Cb5W8MSe0f-8" value="F" style="ellipse;whiteSpace=wrap;html=1;" vertex="1" parent="1">
          <mxGeometry x="480" y="320" width="80" height="80" as="geometry" />
        </mxCell>
      </root>
    </mxGraphModel>
  </diagram>
</mxfile>
